<?xml version="1.0" encoding="utf-8"?>
<!-- Generator: Adobe Illustrator 24.1.1, SVG Export Plug-In . SVG Version: 6.00 Build 0)  -->
<svg version="1.1" id="Layer_1" xmlns="http://www.w3.org/2000/svg" xmlns:xlink="http://www.w3.org/1999/xlink" x="0px" y="0px"
	 viewBox="0 0 92 92" style="enable-background:new 0 0 92 92;" xml:space="preserve">
<style type="text/css">
	.st0{fill:#373635;}
	.st1{fill:#AFC253;}
	.st2{fill:#FFFFFF;}
	.st3{fill:none;stroke:#FFFFFF;stroke-width:0.75;stroke-miterlimit:10;}
</style>
<circle class="st0" cx="46" cy="46" r="45"/>
<g>
	<path class="st1" d="M56.6,45.9c-1.9,0-3.5,0.8-4.9,2.3l-0.1-0.4c-0.2-0.9-1-1.5-1.9-1.5h-1.3c-0.8,0-1.5,0.7-1.5,1.5v23.3
		c0,0.8,0.7,1.5,1.5,1.5h2.3c0.8,0,1.5-0.7,1.5-1.5v-7c0.9,0.9,2.4,1.8,4.4,1.8c4.3,0,6.3-2.4,6.3-10.5
		C62.9,48.1,60.6,45.9,56.6,45.9z M54.7,61.8c-1.1,0-1.9-0.5-2.5-1v-9.5c0.7-0.6,1.5-1.1,2.7-1.1c1.9,0,2.4,1,2.4,5.7
		C57.3,60.7,56.8,61.8,54.7,61.8z"/>
	<path class="st1" d="M42.8,53.6h-2.3c-0.8,0-1.5,0.7-1.5,1.5v12.7c-0.8,0.7-1.6,1.2-2.7,1.2c-1.1,0-1.8-0.4-1.8-2.3V55.1
		c0-0.8-0.7-1.5-1.5-1.5h-2.3c-0.8,0-1.5,0.7-1.5,1.5v12.5c0,3.8,2.2,5,5.3,5c2.5,0,3.7-0.5,5-1.9l0.1,0.4c0.2,0.9,1,1.5,1.8,1.5
		h1.3c0.8,0,1.5-0.7,1.5-1.5v-16C44.3,54.3,43.6,53.6,42.8,53.6z"/>
</g>
<path class="st2" d="M54.6,23.2c-5.3,0-8.3,2.8-8.3,9.9c0,7.2,3,10.1,8.3,10.1s8.3-2.8,8.3-10C62.9,26.1,59.9,23.2,54.6,23.2z
	 M58.3,33.9h-1.8c-0.3,0-0.6,0.3-0.6,0.6v3.8c0,0.3-0.1,0.6-0.4,0.6h-1.6c-0.3,0-0.6-0.3-0.6-0.6v-3.8c0-0.3-0.3-0.6-0.6-0.6h-1.8
	c-0.3,0-0.5-0.2-0.3-0.5l3.7-6.4c0.2-0.3,0.4-0.3,0.6,0l3.7,6.4C58.8,33.7,58.7,33.9,58.3,33.9z"/>
<g>
	<path class="st2" d="M36.7,50.5c-2.8,0-4.9-0.5-6.8-1.4c-0.8-0.3-1.1-1.2-0.7-2l0.6-1.1c0.4-0.8,1.3-1.1,2.1-0.8
		c1.1,0.5,2.4,0.8,3.9,0.8c2.3,0,3.2-1.1,3.2-3.6v-2c-0.9,1.1-2.4,1.9-4.2,1.9c-4.1,0-6.6-2.1-6.6-9.6c0-7,2.1-9.7,6.2-9.7
		c2.1,0,3.9,0.9,5.2,2.3l0.1-0.3c0.2-0.9,1-1.5,1.9-1.5h1.3c0.8,0,1.5,0.7,1.5,1.5v18.1C44.3,48.5,41.4,50.5,36.7,50.5z M36.3,38.3
		c1.2,0,2-0.5,2.7-1.1v-8.7c-0.6-0.5-1.4-1.1-2.5-1.1c-2.1,0-2.6,1.1-2.6,5.3S34.4,38.3,36.3,38.3z"/>
</g>
<ellipse class="st2" cx="54.8" cy="32.6" rx="4.5" ry="7.4"/>
<g>
	<path class="st0" d="M49.1,36.7c0.7-0.9,2.4-3.3,3.1-4.3c0.2-0.2,0.3-0.6,0.3-0.9c0-0.4-0.4-0.8-1-0.8c-0.5,0-0.9,0.3-1.1,0.6
		c-0.1,0.1-0.2,0.1-0.3,0l-0.7-0.7c-0.1-0.1-0.1-0.2,0-0.3c0,0,1-1.2,2.4-1.2c1.7,0,2.7,1.1,2.7,2.4c0,0.6-0.2,1-0.5,1.5
		c-0.4,0.7-1.3,1.9-1.9,2.7H54c0.1,0,0.2,0.1,0.2,0.2v1.1c0,0.1-0.1,0.2-0.2,0.2h-4.7c-0.1,0-0.2-0.1-0.2-0.2V36.7z"/>
	<path class="st0" d="M59,28.8c0.2-0.1,0.3,0,0.4,0.2l0.3,0.9c0,0.1,0,0.3-0.2,0.3c-0.6,0.2-2.1,0.7-2.4,1.9
		c0.3-0.1,0.8-0.2,1.1-0.2c1.1,0,2.3,0.8,2.3,2.6c0,1.5-1.2,2.7-2.7,2.7C56,37.2,55,35.9,55,34C55,30.6,58,29.2,59,28.8z M57.8,35.6
		c0.6,0,1.1-0.5,1.1-1.1c0-0.6-0.5-1.1-1.1-1.1c-0.6,0-1.1,0.5-1.1,1.1C56.7,35.1,57.2,35.6,57.8,35.6z"/>
</g>
</svg>
